# xmcd
#
# Track frame offsets: 
#        150
#        21493
#        45958
#        71107
#        91661
#        112556
#        137979
#        165719
#
# Disc length: 3243 seconds
#
# Revision: 0
# Processed by: cddbd v1.5.2PL0 Copyright (c) Steve Scherf et al.
# Submitted via: ExactAudioCopy v0.99pb3
#
DISCID=5f0ca908
DTITLE=J. B. Hutto and The New Hawks - Hip Shakin' Music Vol. 1
DYEAR=2008
DGENRE=Blues
TTITLE0=Summertime
TTITLE1=Hide And Seek
TTITLE2=The Sixteen Year Old Boy
TTITLE3=Mother-in-Law Blues
TTITLE4=Blue Suede Shoes
TTITLE5=The Sky Is Crying
TTITLE6=Got My Mojo Working
TTITLE7=Blues Got Soul!!
EXTD=
EXTT0=
EXTT1=
EXTT2=
EXTT3=
EXTT4=
EXTT5=
EXTT6=
EXTT7=
PLAYORDER=
